# xmcd
#
# Track frame offsets: 
#        150
#        30200
#        59232
#        72545
#        88779
#        110330
#        138212
#        151827
#        164305
#        179010
#        191042
#        204797
#        210745
#        223927
#        241770
#        261075
#        279997
#        291267
#        300992
#
# Disc length: 4177 seconds
#
# Revision: 3
# Processed by: cddbd v1.5.2PL0 Copyright (c) Steve Scherf et al.
# Submitted via: ExactAudioCopy v1.0b3
#
DISCID=18104f13
DTITLE=Various Artist - Die Zauberflöte
DYEAR=1994
DGENRE=Opera
TTITLE0=Overture
TTITLE1=Act I: Zu hilfe! Zu hilfe!
TTITLE2=Act I: Der Vogelfänger bin ich ja
TTITLE3=Act I: Dies Bildnis ist bezaubernd schon
TTITLE4=Act I: O zitt're nicht, mein lieber Sohn
TTITLE5=Act I: Hm! hm! hm! hm!
TTITLE6=Act I: Bei Mannern, welche Liebe fühlen
TTITLE7=Act I: Wie stark ist nicht dein Zauberton!
TTITLE8=Act I: Schnelle Füsse, rascher Mut
TTITLE9=Act II: March of the Priests
TTITLE10=Act II: O Isis und Osiris
TTITLE11=Act II: Alles fühlt der liebe Freuden
TTITLE12=Act II: Der Hölle Rache kocht in meinen Herzen
TTITLE13=Act II: In diesen heil'gen Hallen
TTITLE14=Act II: Ach, ich fühl's
TTITLE15=Act II: Ein Mädchen oder Weibchen
TTITLE16=Act II: Pa-Pa-Pa-Pa-Pa-Pa-Papageno
TTITLE17=Act II: Nur stille, stille, stille, stille
TTITLE18=Act II: Die Strahlen der Sonne vertreiben die Nacht
EXTD=NAXOS 8.553438\nHerbert Lippert, Tenor (Tamino]\nElizabeth Norber
EXTD=g-Schulz, Soprano (Pamina]\nGeorg Tichy, Baritone (Papageno]\nKur
EXTD=t Rydl, Bass (Sarastro]\nHellen Kwon, Soprano (Queen of the Night
EXTD=]\nWilfried Gahmlich, Tenor (Monostatos]\nHungarian Festival Chor
EXTD=us\nFailoni Orchestra, Budapest - Michael Halasz
EXTT0=
EXTT1=Tamino, The Three Ladies
EXTT2=Papageno
EXTT3=Tamino
EXTT4=Tamino
EXTT5=Papageno, Tamino, The Three Ladies
EXTT6=Pamina, Papageno
EXTT7=Tamino
EXTT8=Pamina, Papageno, Monostatos, Slaves
EXTT9=
EXTT10=Sarastro and Chorus
EXTT11=Monostatos
EXTT12=Queen of the Night
EXTT13=Sarastro
EXTT14=Pamina
EXTT15=Papageno
EXTT16=Papageno, Papagena
EXTT17=Monostatos, Queen of the Night, The Three Ladies
EXTT18=Sarastro and Chorus
PLAYORDER=
